<svg width="27" height="29" viewBox="0 0 27 29" fill="none" xmlns="http://www.w3.org/2000/svg">
<g clip-path="url(#clip0_21_385)">
<path d="M8.07701 27.6547C7.56173 27.2959 7.10505 26.8526 6.72452 26.3417C6.30594 25.8144 5.91811 25.2612 5.56315 24.6851C4.73016 23.4078 4.07691 22.0119 3.62343 20.5401C3.07868 18.8304 2.81488 17.1918 2.81488 15.589C2.81488 13.799 3.18485 12.2364 3.90847 10.9234C4.44487 9.89711 5.23353 9.0395 6.19284 8.43927C7.12252 7.83489 8.19073 7.50414 9.28494 7.48187C9.66798 7.48187 10.0804 7.54 10.5182 7.65112C10.8326 7.7443 11.2157 7.89133 11.6836 8.07426C12.279 8.31446 12.6065 8.46149 12.7176 8.49739C13.0664 8.63075 13.3596 8.68887 13.5899 8.68887C13.7647 8.68887 14.0113 8.63075 14.2914 8.54185C14.4491 8.48372 14.7464 8.38114 15.1719 8.19051C15.5933 8.02981 15.9249 7.89218 16.1887 7.78961C16.593 7.6648 16.9842 7.5494 17.3329 7.49127C17.7463 7.42305 18.1659 7.40498 18.5833 7.43742C19.3066 7.4869 20.019 7.64733 20.6978 7.91355C21.8077 8.38114 22.7053 9.11115 23.3734 10.1489C23.091 10.3311 22.826 10.5412 22.582 10.7763C22.0508 11.2692 21.5983 11.8478 21.2417 12.4903C20.7756 13.3682 20.534 14.3572 20.5402 15.3616C20.5573 16.5951 20.8595 17.6816 21.4549 18.621C21.8926 19.3173 22.4615 19.9127 23.1267 20.3708C23.4673 20.611 23.7605 20.776 24.0414 20.8871C23.91 21.3145 23.7695 21.7283 23.6037 22.1386C23.2277 23.0587 22.7719 23.9409 22.2422 24.774C21.7701 25.4912 21.4002 26.0254 21.1192 26.3811C20.6815 26.9239 20.26 27.3384 19.8345 27.6274C19.3665 27.9522 18.8136 28.1257 18.2517 28.1257C17.8712 28.141 17.4907 28.0928 17.1246 27.983C16.8102 27.8719 16.499 27.7513 16.1928 27.6137C15.8744 27.4606 15.546 27.3312 15.2102 27.2265C14.3802 27.0033 13.5099 27.0019 12.6792 27.2222C12.3387 27.3248 12.0112 27.4444 11.6877 27.5915C11.2328 27.7915 10.9306 27.9257 10.7559 27.983C10.4071 28.0898 10.0453 28.1565 9.67942 28.1787C9.11343 28.1787 8.58583 28.0095 8.06313 27.6667L8.07701 27.6547ZM15.5418 6.61337C14.8019 7.00061 14.0954 7.16559 13.3939 7.11173C13.2836 6.37232 13.3939 5.6158 13.6871 4.78748C13.9367 4.08573 14.3055 3.43703 14.7758 2.87269C15.2723 2.27861 15.8749 1.79167 16.5497 1.43916C17.2684 1.05193 17.9536 0.842495 18.6086 0.811722C18.6936 1.58619 18.6086 2.34783 18.3367 3.17102C18.085 3.89871 17.7168 4.57628 17.248 5.17472C16.7694 5.76961 16.1821 6.25844 15.5206 6.61252L15.5418 6.61337Z" fill="black"/>
</g>
<defs>
<clipPath id="clip0_21_385">
<rect width="26.1351" height="27.3542" fill="white" transform="translate(0.368835 0.812576)"/>
</clipPath>
</defs>
</svg>
