<svg width="27" height="29" viewBox="0 0 27 29" fill="none" xmlns="http://www.w3.org/2000/svg">
<path d="M7.23275 17.0837L6.40573 20.3151L3.38298 20.382C2.47962 18.6283 1.96722 16.6219 1.96722 14.4897C1.96722 12.4279 2.44631 10.4836 3.29551 8.77156H3.29616L5.98725 9.28795L7.16612 12.0877C6.91938 12.8405 6.7849 13.6487 6.7849 14.4897C6.785 15.4024 6.94296 16.2769 7.23275 17.0837Z" fill="#FBBB00"/>
<path d="M25.5188 12.1669C25.6552 12.919 25.7264 13.6958 25.7264 14.4896C25.7264 15.3798 25.637 16.2481 25.4666 17.0857C24.8883 19.9359 23.3772 22.4247 21.284 24.1859L21.2833 24.1852L17.8938 24.0042L17.414 20.8698C18.803 20.0172 19.8885 18.683 20.4603 17.0857H14.108V12.1669H20.553H25.5188Z" fill="#518EF8"/>
<path d="M21.2833 24.1853L21.2839 24.186C19.2481 25.8987 16.662 26.9234 13.8468 26.9234C9.32278 26.9234 5.38948 24.2768 3.383 20.3821L7.23277 17.0837C8.23599 19.8861 10.8188 21.881 13.8468 21.881C15.1483 21.881 16.3676 21.5127 17.4139 20.8698L21.2833 24.1853Z" fill="#28B446"/>
<path d="M21.4295 4.91843L17.581 8.21609C16.4982 7.50766 15.2182 7.09841 13.8468 7.09841C10.7503 7.09841 8.11915 9.1848 7.16619 12.0876L3.29618 8.77152H3.29553C5.27265 4.78181 9.25555 2.05595 13.8468 2.05595C16.7292 2.05595 19.3721 3.1306 21.4295 4.91843Z" fill="#F14336"/>
</svg>
